<svg width="98" height="52" viewBox="0 0 98 52" fill="none" xmlns="http://www.w3.org/2000/svg">
<path fill-rule="evenodd" clip-rule="evenodd" d="M36.5704 0.725925C36.0181 0.725925 35.5704 1.17364 35.5704 1.72593V6.00088C35.5704 6.55316 36.0181 7.00088 36.5704 7.00088H72.8973C83.0243 7.00088 90.9778 14.7975 90.9778 24.8904C90.9778 25.1759 91.2093 25.4074 91.4948 25.4074H96.757C97.0426 25.4074 97.2741 25.1759 97.2741 24.8904C97.2741 11.4011 86.4321 0.725925 72.8973 0.725925H36.5704Z" fill="#6B7B84" stroke="#80949F" stroke-width="0.5"/>
<path fill-rule="evenodd" clip-rule="evenodd" d="M7.10668 25.8457C7.10668 25.6036 6.91045 25.4074 6.66839 25.4074H1.16422C0.922158 25.4074 0.725929 25.6036 0.725929 25.8457C0.725929 39.4951 10.9492 50.7646 24.1686 51.5021L66.5102 51.5399C67.0629 51.5403 67.5111 51.0925 67.5111 50.5399V45.9602C67.5111 45.4079 67.0634 44.9602 66.5111 44.9602H25.6264C15.3902 44.9319 7.10668 36.4165 7.10668 25.8457Z" fill="#6B7B84" stroke="#80949F" stroke-width="0.5"/>
<path fill-rule="evenodd" clip-rule="evenodd" d="M28.1414 39.9259C30.8802 39.9259 33.1616 39.3938 35.4148 38.299L35.5704 38.1535V30.319L34.7272 31.3984C33.1048 33.1713 30.9259 34.1472 28.4607 34.1472C23.8691 34.1472 19.2575 31.1794 19.2575 25.5073C19.2575 21.221 22.438 16.6655 28.2993 16.6655C29.4688 16.6655 32.3129 16.942 34.7231 19.5015L35.5704 20.5452V12.7463L35.4217 12.5988C33.1258 11.4482 30.7842 10.8889 28.1136 10.8889C23.5466 10.8889 19.982 12.0912 17.1438 14.5625C15.3434 16.1112 12.3407 19.582 12.3407 25.4258C12.3407 29.7466 13.8793 33.121 17.1668 36.0479C20.2251 38.7297 23.6162 39.9259 28.1414 39.9259Z" fill="#6B7B84"/>
<path d="M28.1414 39.9259C30.8802 39.9259 33.1616 39.3938 35.4148 38.299L35.5704 38.1535V30.319L34.7272 31.3984C33.1048 33.1713 30.9259 34.1472 28.4607 34.1472C23.8691 34.1472 19.2575 31.1794 19.2575 25.5073C19.2575 21.221 22.438 16.6655 28.2993 16.6655C29.4688 16.6655 32.3129 16.942 34.7231 19.5015L35.5704 20.5452V12.7463L35.4217 12.5988C33.1258 11.4482 30.7842 10.8889 28.1136 10.8889C23.5466 10.8889 19.982 12.0912 17.1438 14.5625C15.3434 16.1112 12.3407 19.582 12.3407 25.4258C12.3407 29.7466 13.8793 33.121 17.1668 36.0479C20.2251 38.7297 23.6162 39.9259 28.1414 39.9259" stroke="#80949F" stroke-width="0.5"/>
<path fill-rule="evenodd" clip-rule="evenodd" d="M47.9111 17.4222H49.2754C50.5269 17.4222 51.9533 17.4905 53.0328 18.2264C53.56 18.6029 54.4444 19.4746 54.4444 21.058C54.4444 22.228 53.9274 23.2771 53.0733 23.9318C51.9783 24.7266 50.6768 24.681 49.6309 24.681H47.9111V17.4222ZM50.9768 29.9514C54.2082 29.9514 56.7376 29.0193 58.4941 27.2633C60.6548 25.1071 60.9778 22.1409 60.9778 20.5771C60.9778 18.9038 60.5811 15.6401 57.921 13.277C55.7406 11.3663 53.4141 10.8889 50.1323 10.8889H41.3778V39.9259H48.0364V29.9514H50.9768Z" fill="#6B7B84"/>
<path d="M47.9111 17.4222V17.1722H47.6611V17.4222H47.9111ZM53.0328 18.2264L53.1782 18.0229L53.1736 18.0198L53.0328 18.2264ZM53.0733 23.9318L53.2202 24.1341L53.2254 24.1302L53.0733 23.9318ZM47.9111 24.681H47.6611V24.931H47.9111V24.681ZM58.4941 27.2633L58.3175 27.0864L58.3174 27.0865L58.4941 27.2633ZM57.921 13.277L58.0871 13.0901L58.0858 13.089L57.921 13.277ZM41.3778 10.8889V10.6389H41.1278V10.8889H41.3778ZM41.3778 39.9259H41.1278V40.1759H41.3778V39.9259ZM48.0364 39.9259V40.1759H48.2864V39.9259H48.0364ZM48.0364 29.9514V29.7014H47.7864V29.9514H48.0364ZM47.9111 17.4222V17.6722H49.2754V17.4222V17.1722H47.9111V17.4222ZM49.2754 17.4222V17.6722C50.5326 17.6722 51.8838 17.7457 52.892 18.4329L53.0328 18.2264L53.1736 18.0198C52.0227 17.2353 50.5212 17.1722 49.2754 17.1722V17.4222ZM53.0328 18.2264L52.8875 18.4298C53.3751 18.7781 54.1944 19.5829 54.1944 21.058H54.4444H54.6944C54.6944 19.3664 53.7448 18.4277 53.1781 18.0229L53.0328 18.2264ZM54.4444 21.058H54.1944C54.1944 22.1539 53.7107 23.1282 52.9212 23.7333L53.0733 23.9318L53.2254 24.1302C54.1441 23.426 54.6944 22.3021 54.6944 21.058H54.4444ZM53.0733 23.9318L52.9265 23.7294C51.9091 24.4679 50.6971 24.431 49.6309 24.431V24.681V24.931C50.6564 24.931 52.0475 24.9853 53.2202 24.1341L53.0733 23.9318ZM49.6309 24.681V24.431H47.9111V24.681V24.931H49.6309V24.681ZM47.9111 24.681H48.1611V17.4222H47.9111H47.6611V24.681H47.9111ZM50.9768 29.9514V30.2014C54.2567 30.2014 56.8562 29.2542 58.6709 27.4401L58.4941 27.2633L58.3174 27.0865C56.619 28.7844 54.1597 29.7014 50.9768 29.7014V29.9514ZM58.4941 27.2633L58.6707 27.4403C60.9028 25.2128 61.2278 22.1623 61.2278 20.5771H60.9778H60.7278C60.7278 22.1194 60.4069 25.0013 58.3175 27.0864L58.4941 27.2633ZM60.9778 20.5771H61.2278C61.2278 18.8757 60.8261 15.5233 58.0871 13.0901L57.921 13.277L57.755 13.4639C60.3362 15.7569 60.7278 18.9319 60.7278 20.5771H60.9778ZM57.921 13.277L58.0858 13.089C55.8398 11.1209 53.4416 10.6389 50.1323 10.6389V10.8889V11.1389C53.3865 11.1389 55.6413 11.6118 57.7563 13.465L57.921 13.277ZM50.1323 10.8889V10.6389H41.3778V10.8889V11.1389H50.1323V10.8889ZM41.3778 10.8889H41.1278V39.9259H41.3778H41.6278V10.8889H41.3778ZM41.3778 39.9259V40.1759H48.0364V39.9259V39.6759H41.3778V39.9259ZM48.0364 39.9259H48.2864V29.9514H48.0364H47.7864V39.9259H48.0364ZM48.0364 29.9514V30.2014H50.9768V29.9514V29.7014H48.0364V29.9514Z" fill="#80949F"/>
<path fill-rule="evenodd" clip-rule="evenodd" d="M80.9528 24.6022C79.5051 23.3196 77.4844 22.576 75.1909 21.8048C73.5567 21.2362 72.6563 20.9229 72.056 20.3756C71.5822 19.9734 71.371 19.5368 71.371 18.9597C71.371 17.6957 72.2299 16.3448 74.6412 16.3448C76.2799 16.3448 77.6519 17.0455 78.7195 18.4266L79.1433 18.9749L82.6595 14.4991L82.339 14.178C80.1884 12.026 77.3546 10.8889 74.1437 10.8889C67.6655 10.8889 64.7656 15.1034 64.7656 19.2804C64.7656 21.5218 65.5649 23.3295 67.1365 24.651C68.5435 25.8569 70.2593 26.5326 71.9052 27.0842L72.0912 27.1459C73.5528 27.629 75.0644 28.1289 75.9672 28.9369C76.5953 29.514 76.8752 30.1412 76.8752 30.9702C76.8752 32.8703 75.3789 34.1472 73.1518 34.1472C71.3914 34.1472 69.0733 33.2843 67.8469 30.8632L67.5261 30.2288L63.1556 34.2746L63.4133 34.6392C64.8077 36.6136 67.9543 39.9259 73.3592 39.9259C79.3189 39.9259 83.4815 36.0944 83.4815 30.6086C83.4815 27.4709 82.1049 25.6087 80.9528 24.6022Z" fill="#6B7B84"/>
<path d="M80.9528 24.6022C79.5051 23.3196 77.4844 22.576 75.1909 21.8048C73.5567 21.2362 72.6563 20.9229 72.056 20.3756C71.5822 19.9734 71.371 19.5368 71.371 18.9597C71.371 17.6957 72.2299 16.3448 74.6412 16.3448C76.2799 16.3448 77.6519 17.0455 78.7195 18.4266L79.1433 18.9749L82.6595 14.4991L82.339 14.178C80.1884 12.026 77.3546 10.8889 74.1437 10.8889C67.6655 10.8889 64.7656 15.1034 64.7656 19.2804C64.7656 21.5218 65.5649 23.3295 67.1365 24.651C68.5435 25.8569 70.2593 26.5326 71.9052 27.0842L72.0912 27.1459C73.5528 27.629 75.0644 28.1289 75.9672 28.9369C76.5953 29.514 76.8752 30.1412 76.8752 30.9702C76.8752 32.8703 75.3789 34.1472 73.1518 34.1472C71.3914 34.1472 69.0733 33.2843 67.8469 30.8632L67.5261 30.2288L63.1556 34.2746L63.4133 34.6392C64.8077 36.6136 67.9543 39.9259 73.3592 39.9259C79.3189 39.9259 83.4815 36.0944 83.4815 30.6086C83.4815 27.4709 82.1049 25.6087 80.9528 24.6022" stroke="#80949F" stroke-width="0.5"/>
</svg>
